<?xml version="1.0" encoding="utf-8" standalone="no"?>
<!DOCTYPE svg PUBLIC "-//W3C//DTD SVG 1.1//EN"
  "http://www.w3.org/Graphics/SVG/1.1/DTD/svg11.dtd">
<!-- Created with matplotlib (http://matplotlib.org/) -->
<svg height="432pt" version="1.1" viewBox="0 0 1152 432" width="1152pt" xmlns="http://www.w3.org/2000/svg" xmlns:xlink="http://www.w3.org/1999/xlink">
 <defs>
  <style type="text/css">
*{stroke-linecap:butt;stroke-linejoin:round;}
  </style>
 </defs>
 <g id="figure_1">
  <g id="patch_1">
   <path d="M 0 432 
L 1152 432 
L 1152 0 
L 0 0 
z
" style="fill:#ffffff;"/>
  </g>
  <g id="axes_1">
   <g id="patch_2">
    <path d="M 118.175 377.24 
L 576.6625 377.24 
L 576.6625 48.4 
L 118.175 48.4 
z
" style="fill:#ffffff;"/>
   </g>
   <g id="patch_3">
    <path clip-path="url(#pb259ebae67)" d="M 118.175 362.44371 
L 232.916397 362.44371 
L 232.916397 338.286501 
L 118.175 338.286501 
z
" style="fill:#094267;"/>
   </g>
   <g id="patch_4">
    <path clip-path="url(#pb259ebae67)" d="M 118.175 332.247199 
L 216.980092 332.247199 
L 216.980092 308.089991 
L 118.175 308.089991 
z
" style="fill:#094267;"/>
   </g>
   <g id="patch_5">
    <path clip-path="url(#pb259ebae67)" d="M 118.175 302.050689 
L 554.829762 302.050689 
L 554.829762 277.89348 
L 118.175 277.89348 
z
" style="fill:#094267;"/>
   </g>
   <g id="patch_6">
    <path clip-path="url(#pb259ebae67)" d="M 118.175 271.854178 
L 516.582629 271.854178 
L 516.582629 247.69697 
L 118.175 247.69697 
z
" style="fill:#094267;"/>
   </g>
   <g id="patch_7">
    <path clip-path="url(#pb259ebae67)" d="M 118.175 241.657668 
L 374.749513 241.657668 
L 374.749513 217.500459 
L 118.175 217.500459 
z
" style="fill:#094267;"/>
   </g>
   <g id="patch_8">
    <path clip-path="url(#pb259ebae67)" d="M 118.175 211.461157 
L 290.287096 211.461157 
L 290.287096 187.303949 
L 118.175 187.303949 
z
" style="fill:#094267;"/>
   </g>
   <g id="patch_9">
    <path clip-path="url(#pb259ebae67)" d="M 118.175 181.264646 
L 221.760984 181.264646 
L 221.760984 157.107438 
L 118.175 157.107438 
z
" style="fill:#094267;"/>
   </g>
   <g id="patch_10">
    <path clip-path="url(#pb259ebae67)" d="M 118.175 151.068136 
L 183.513851 151.068136 
L 183.513851 126.910927 
L 118.175 126.910927 
z
" style="fill:#094267;"/>
   </g>
   <g id="patch_11">
    <path clip-path="url(#pb259ebae67)" d="M 118.175 120.871625 
L 134.111305 120.871625 
L 134.111305 96.714417 
L 118.175 96.714417 
z
" style="fill:#094267;"/>
   </g>
   <g id="patch_12">
    <path clip-path="url(#pb259ebae67)" d="M 118.175 90.675115 
L 122.955892 90.675115 
L 122.955892 66.517906 
L 118.175 66.517906 
z
" style="fill:#094267;"/>
   </g>
   <g id="matplotlib.axis_1">
    <g id="xtick_1">
     <g id="line2d_1">
      <defs>
       <path d="M 0 0 
L 0 3.5 
" id="m74392344b3" style="stroke:#000000;stroke-width:0.8;"/>
      </defs>
      <g>
       <use style="stroke:#000000;stroke-width:0.8;" x="118.175" xlink:href="#m74392344b3" y="377.24"/>
      </g>
     </g>
     <g id="text_1">
      <!-- 0 -->
      <defs>
       <path d="M 31.78125 66.40625 
Q 24.171875 66.40625 20.328125 58.90625 
Q 16.5 51.421875 16.5 36.375 
Q 16.5 21.390625 20.328125 13.890625 
Q 24.171875 6.390625 31.78125 6.390625 
Q 39.453125 6.390625 43.28125 13.890625 
Q 47.125 21.390625 47.125 36.375 
Q 47.125 51.421875 43.28125 58.90625 
Q 39.453125 66.40625 31.78125 66.40625 
z
M 31.78125 74.21875 
Q 44.046875 74.21875 50.515625 64.515625 
Q 56.984375 54.828125 56.984375 36.375 
Q 56.984375 17.96875 50.515625 8.265625 
Q 44.046875 -1.421875 31.78125 -1.421875 
Q 19.53125 -1.421875 13.0625 8.265625 
Q 6.59375 17.96875 6.59375 36.375 
Q 6.59375 54.828125 13.0625 64.515625 
Q 19.53125 74.21875 31.78125 74.21875 
z
" id="DejaVuSans-30"/>
      </defs>
      <g transform="translate(114.99375 391.838437)scale(0.1 -0.1)">
       <use xlink:href="#DejaVuSans-30"/>
      </g>
     </g>
    </g>
    <g id="xtick_2">
     <g id="line2d_2">
      <g>
       <use style="stroke:#000000;stroke-width:0.8;" x="197.856526" xlink:href="#m74392344b3" y="377.24"/>
      </g>
     </g>
     <g id="text_2">
      <!-- 50 -->
      <defs>
       <path d="M 10.796875 72.90625 
L 49.515625 72.90625 
L 49.515625 64.59375 
L 19.828125 64.59375 
L 19.828125 46.734375 
Q 21.96875 47.46875 24.109375 47.828125 
Q 26.265625 48.1875 28.421875 48.1875 
Q 40.625 48.1875 47.75 41.5 
Q 54.890625 34.8125 54.890625 23.390625 
Q 54.890625 11.625 47.5625 5.09375 
Q 40.234375 -1.421875 26.90625 -1.421875 
Q 22.3125 -1.421875 17.546875 -0.640625 
Q 12.796875 0.140625 7.71875 1.703125 
L 7.71875 11.625 
Q 12.109375 9.234375 16.796875 8.0625 
Q 21.484375 6.890625 26.703125 6.890625 
Q 35.15625 6.890625 40.078125 11.328125 
Q 45.015625 15.765625 45.015625 23.390625 
Q 45.015625 31 40.078125 35.4375 
Q 35.15625 39.890625 26.703125 39.890625 
Q 22.75 39.890625 18.8125 39.015625 
Q 14.890625 38.140625 10.796875 36.28125 
z
" id="DejaVuSans-35"/>
      </defs>
      <g transform="translate(191.494026 391.838437)scale(0.1 -0.1)">
       <use xlink:href="#DejaVuSans-35"/>
       <use x="63.623047" xlink:href="#DejaVuSans-30"/>
      </g>
     </g>
    </g>
    <g id="xtick_3">
     <g id="line2d_3">
      <g>
       <use style="stroke:#000000;stroke-width:0.8;" x="277.538052" xlink:href="#m74392344b3" y="377.24"/>
      </g>
     </g>
     <g id="text_3">
      <!-- 100 -->
      <defs>
       <path d="M 12.40625 8.296875 
L 28.515625 8.296875 
L 28.515625 63.921875 
L 10.984375 60.40625 
L 10.984375 69.390625 
L 28.421875 72.90625 
L 38.28125 72.90625 
L 38.28125 8.296875 
L 54.390625 8.296875 
L 54.390625 0 
L 12.40625 0 
z
" id="DejaVuSans-31"/>
      </defs>
      <g transform="translate(267.994302 391.838437)scale(0.1 -0.1)">
       <use xlink:href="#DejaVuSans-31"/>
       <use x="63.623047" xlink:href="#DejaVuSans-30"/>
       <use x="127.246094" xlink:href="#DejaVuSans-30"/>
      </g>
     </g>
    </g>
    <g id="xtick_4">
     <g id="line2d_4">
      <g>
       <use style="stroke:#000000;stroke-width:0.8;" x="357.219578" xlink:href="#m74392344b3" y="377.24"/>
      </g>
     </g>
     <g id="text_4">
      <!-- 150 -->
      <g transform="translate(347.675828 391.838437)scale(0.1 -0.1)">
       <use xlink:href="#DejaVuSans-31"/>
       <use x="63.623047" xlink:href="#DejaVuSans-35"/>
       <use x="127.246094" xlink:href="#DejaVuSans-30"/>
      </g>
     </g>
    </g>
    <g id="xtick_5">
     <g id="line2d_5">
      <g>
       <use style="stroke:#000000;stroke-width:0.8;" x="436.901104" xlink:href="#m74392344b3" y="377.24"/>
      </g>
     </g>
     <g id="text_5">
      <!-- 200 -->
      <defs>
       <path d="M 19.1875 8.296875 
L 53.609375 8.296875 
L 53.609375 0 
L 7.328125 0 
L 7.328125 8.296875 
Q 12.9375 14.109375 22.625 23.890625 
Q 32.328125 33.6875 34.8125 36.53125 
Q 39.546875 41.84375 41.421875 45.53125 
Q 43.3125 49.21875 43.3125 52.78125 
Q 43.3125 58.59375 39.234375 62.25 
Q 35.15625 65.921875 28.609375 65.921875 
Q 23.96875 65.921875 18.8125 64.3125 
Q 13.671875 62.703125 7.8125 59.421875 
L 7.8125 69.390625 
Q 13.765625 71.78125 18.9375 73 
Q 24.125 74.21875 28.421875 74.21875 
Q 39.75 74.21875 46.484375 68.546875 
Q 53.21875 62.890625 53.21875 53.421875 
Q 53.21875 48.921875 51.53125 44.890625 
Q 49.859375 40.875 45.40625 35.40625 
Q 44.1875 33.984375 37.640625 27.21875 
Q 31.109375 20.453125 19.1875 8.296875 
z
" id="DejaVuSans-32"/>
      </defs>
      <g transform="translate(427.357354 391.838437)scale(0.1 -0.1)">
       <use xlink:href="#DejaVuSans-32"/>
       <use x="63.623047" xlink:href="#DejaVuSans-30"/>
       <use x="127.246094" xlink:href="#DejaVuSans-30"/>
      </g>
     </g>
    </g>
    <g id="xtick_6">
     <g id="line2d_6">
      <g>
       <use style="stroke:#000000;stroke-width:0.8;" x="516.582629" xlink:href="#m74392344b3" y="377.24"/>
      </g>
     </g>
     <g id="text_6">
      <!-- 250 -->
      <g transform="translate(507.038879 391.838437)scale(0.1 -0.1)">
       <use xlink:href="#DejaVuSans-32"/>
       <use x="63.623047" xlink:href="#DejaVuSans-35"/>
       <use x="127.246094" xlink:href="#DejaVuSans-30"/>
      </g>
     </g>
    </g>
    <g id="text_7">
     <!-- Frequency -->
     <defs>
      <path d="M 9.8125 72.90625 
L 51.703125 72.90625 
L 51.703125 64.59375 
L 19.671875 64.59375 
L 19.671875 43.109375 
L 48.578125 43.109375 
L 48.578125 34.8125 
L 19.671875 34.8125 
L 19.671875 0 
L 9.8125 0 
z
" id="DejaVuSans-46"/>
      <path d="M 41.109375 46.296875 
Q 39.59375 47.171875 37.8125 47.578125 
Q 36.03125 48 33.890625 48 
Q 26.265625 48 22.1875 43.046875 
Q 18.109375 38.09375 18.109375 28.8125 
L 18.109375 0 
L 9.078125 0 
L 9.078125 54.6875 
L 18.109375 54.6875 
L 18.109375 46.1875 
Q 20.953125 51.171875 25.484375 53.578125 
Q 30.03125 56 36.53125 56 
Q 37.453125 56 38.578125 55.875 
Q 39.703125 55.765625 41.0625 55.515625 
z
" id="DejaVuSans-72"/>
      <path d="M 56.203125 29.59375 
L 56.203125 25.203125 
L 14.890625 25.203125 
Q 15.484375 15.921875 20.484375 11.0625 
Q 25.484375 6.203125 34.421875 6.203125 
Q 39.59375 6.203125 44.453125 7.46875 
Q 49.3125 8.734375 54.109375 11.28125 
L 54.109375 2.78125 
Q 49.265625 0.734375 44.1875 -0.34375 
Q 39.109375 -1.421875 33.890625 -1.421875 
Q 20.796875 -1.421875 13.15625 6.1875 
Q 5.515625 13.8125 5.515625 26.8125 
Q 5.515625 40.234375 12.765625 48.109375 
Q 20.015625 56 32.328125 56 
Q 43.359375 56 49.78125 48.890625 
Q 56.203125 41.796875 56.203125 29.59375 
z
M 47.21875 32.234375 
Q 47.125 39.59375 43.09375 43.984375 
Q 39.0625 48.390625 32.421875 48.390625 
Q 24.90625 48.390625 20.390625 44.140625 
Q 15.875 39.890625 15.1875 32.171875 
z
" id="DejaVuSans-65"/>
      <path d="M 14.796875 27.296875 
Q 14.796875 17.390625 18.875 11.75 
Q 22.953125 6.109375 30.078125 6.109375 
Q 37.203125 6.109375 41.296875 11.75 
Q 45.40625 17.390625 45.40625 27.296875 
Q 45.40625 37.203125 41.296875 42.84375 
Q 37.203125 48.484375 30.078125 48.484375 
Q 22.953125 48.484375 18.875 42.84375 
Q 14.796875 37.203125 14.796875 27.296875 
z
M 45.40625 8.203125 
Q 42.578125 3.328125 38.25 0.953125 
Q 33.9375 -1.421875 27.875 -1.421875 
Q 17.96875 -1.421875 11.734375 6.484375 
Q 5.515625 14.40625 5.515625 27.296875 
Q 5.515625 40.1875 11.734375 48.09375 
Q 17.96875 56 27.875 56 
Q 33.9375 56 38.25 53.625 
Q 42.578125 51.265625 45.40625 46.390625 
L 45.40625 54.6875 
L 54.390625 54.6875 
L 54.390625 -20.796875 
L 45.40625 -20.796875 
z
" id="DejaVuSans-71"/>
      <path d="M 8.5 21.578125 
L 8.5 54.6875 
L 17.484375 54.6875 
L 17.484375 21.921875 
Q 17.484375 14.15625 20.5 10.265625 
Q 23.53125 6.390625 29.59375 6.390625 
Q 36.859375 6.390625 41.078125 11.03125 
Q 45.3125 15.671875 45.3125 23.6875 
L 45.3125 54.6875 
L 54.296875 54.6875 
L 54.296875 0 
L 45.3125 0 
L 45.3125 8.40625 
Q 42.046875 3.421875 37.71875 1 
Q 33.40625 -1.421875 27.6875 -1.421875 
Q 18.265625 -1.421875 13.375 4.4375 
Q 8.5 10.296875 8.5 21.578125 
z
M 31.109375 56 
z
" id="DejaVuSans-75"/>
      <path d="M 54.890625 33.015625 
L 54.890625 0 
L 45.90625 0 
L 45.90625 32.71875 
Q 45.90625 40.484375 42.875 44.328125 
Q 39.84375 48.1875 33.796875 48.1875 
Q 26.515625 48.1875 22.3125 43.546875 
Q 18.109375 38.921875 18.109375 30.90625 
L 18.109375 0 
L 9.078125 0 
L 9.078125 54.6875 
L 18.109375 54.6875 
L 18.109375 46.1875 
Q 21.34375 51.125 25.703125 53.5625 
Q 30.078125 56 35.796875 56 
Q 45.21875 56 50.046875 50.171875 
Q 54.890625 44.34375 54.890625 33.015625 
z
" id="DejaVuSans-6e"/>
      <path d="M 48.78125 52.59375 
L 48.78125 44.1875 
Q 44.96875 46.296875 41.140625 47.34375 
Q 37.3125 48.390625 33.40625 48.390625 
Q 24.65625 48.390625 19.8125 42.84375 
Q 14.984375 37.3125 14.984375 27.296875 
Q 14.984375 17.28125 19.8125 11.734375 
Q 24.65625 6.203125 33.40625 6.203125 
Q 37.3125 6.203125 41.140625 7.25 
Q 44.96875 8.296875 48.78125 10.40625 
L 48.78125 2.09375 
Q 45.015625 0.34375 40.984375 -0.53125 
Q 36.96875 -1.421875 32.421875 -1.421875 
Q 20.0625 -1.421875 12.78125 6.34375 
Q 5.515625 14.109375 5.515625 27.296875 
Q 5.515625 40.671875 12.859375 48.328125 
Q 20.21875 56 33.015625 56 
Q 37.15625 56 41.109375 55.140625 
Q 45.0625 54.296875 48.78125 52.59375 
z
" id="DejaVuSans-63"/>
      <path d="M 32.171875 -5.078125 
Q 28.375 -14.84375 24.75 -17.8125 
Q 21.140625 -20.796875 15.09375 -20.796875 
L 7.90625 -20.796875 
L 7.90625 -13.28125 
L 13.1875 -13.28125 
Q 16.890625 -13.28125 18.9375 -11.515625 
Q 21 -9.765625 23.484375 -3.21875 
L 25.09375 0.875 
L 2.984375 54.6875 
L 12.5 54.6875 
L 29.59375 11.921875 
L 46.6875 54.6875 
L 56.203125 54.6875 
z
" id="DejaVuSans-79"/>
     </defs>
     <g transform="translate(321.121094 405.516563)scale(0.1 -0.1)">
      <use xlink:href="#DejaVuSans-46"/>
      <use x="57.410156" xlink:href="#DejaVuSans-72"/>
      <use x="98.492188" xlink:href="#DejaVuSans-65"/>
      <use x="160.015625" xlink:href="#DejaVuSans-71"/>
      <use x="223.492188" xlink:href="#DejaVuSans-75"/>
      <use x="286.871094" xlink:href="#DejaVuSans-65"/>
      <use x="348.394531" xlink:href="#DejaVuSans-6e"/>
      <use x="411.773438" xlink:href="#DejaVuSans-63"/>
      <use x="466.753906" xlink:href="#DejaVuSans-79"/>
     </g>
    </g>
   </g>
   <g id="matplotlib.axis_2">
    <g id="ytick_1">
     <g id="line2d_7">
      <defs>
       <path d="M 0 0 
L -3.5 0 
" id="m7ff073b61a" style="stroke:#000000;stroke-width:0.8;"/>
      </defs>
      <g>
       <use style="stroke:#000000;stroke-width:0.8;" x="118.175" xlink:href="#m7ff073b61a" y="350.365106"/>
      </g>
     </g>
     <g id="text_8">
      <!-- 0.0869 to 8.15 -->
      <defs>
       <path d="M 10.6875 12.40625 
L 21 12.40625 
L 21 0 
L 10.6875 0 
z
" id="DejaVuSans-2e"/>
       <path d="M 31.78125 34.625 
Q 24.75 34.625 20.71875 30.859375 
Q 16.703125 27.09375 16.703125 20.515625 
Q 16.703125 13.921875 20.71875 10.15625 
Q 24.75 6.390625 31.78125 6.390625 
Q 38.8125 6.390625 42.859375 10.171875 
Q 46.921875 13.96875 46.921875 20.515625 
Q 46.921875 27.09375 42.890625 30.859375 
Q 38.875 34.625 31.78125 34.625 
z
M 21.921875 38.8125 
Q 15.578125 40.375 12.03125 44.71875 
Q 8.5 49.078125 8.5 55.328125 
Q 8.5 64.0625 14.71875 69.140625 
Q 20.953125 74.21875 31.78125 74.21875 
Q 42.671875 74.21875 48.875 69.140625 
Q 55.078125 64.0625 55.078125 55.328125 
Q 55.078125 49.078125 51.53125 44.71875 
Q 48 40.375 41.703125 38.8125 
Q 48.828125 37.15625 52.796875 32.3125 
Q 56.78125 27.484375 56.78125 20.515625 
Q 56.78125 9.90625 50.3125 4.234375 
Q 43.84375 -1.421875 31.78125 -1.421875 
Q 19.734375 -1.421875 13.25 4.234375 
Q 6.78125 9.90625 6.78125 20.515625 
Q 6.78125 27.484375 10.78125 32.3125 
Q 14.796875 37.15625 21.921875 38.8125 
z
M 18.3125 54.390625 
Q 18.3125 48.734375 21.84375 45.5625 
Q 25.390625 42.390625 31.78125 42.390625 
Q 38.140625 42.390625 41.71875 45.5625 
Q 45.3125 48.734375 45.3125 54.390625 
Q 45.3125 60.0625 41.71875 63.234375 
Q 38.140625 66.40625 31.78125 66.40625 
Q 25.390625 66.40625 21.84375 63.234375 
Q 18.3125 60.0625 18.3125 54.390625 
z
" id="DejaVuSans-38"/>
       <path d="M 33.015625 40.375 
Q 26.375 40.375 22.484375 35.828125 
Q 18.609375 31.296875 18.609375 23.390625 
Q 18.609375 15.53125 22.484375 10.953125 
Q 26.375 6.390625 33.015625 6.390625 
Q 39.65625 6.390625 43.53125 10.953125 
Q 47.40625 15.53125 47.40625 23.390625 
Q 47.40625 31.296875 43.53125 35.828125 
Q 39.65625 40.375 33.015625 40.375 
z
M 52.59375 71.296875 
L 52.59375 62.3125 
Q 48.875 64.0625 45.09375 64.984375 
Q 41.3125 65.921875 37.59375 65.921875 
Q 27.828125 65.921875 22.671875 59.328125 
Q 17.53125 52.734375 16.796875 39.40625 
Q 19.671875 43.65625 24.015625 45.921875 
Q 28.375 48.1875 33.59375 48.1875 
Q 44.578125 48.1875 50.953125 41.515625 
Q 57.328125 34.859375 57.328125 23.390625 
Q 57.328125 12.15625 50.6875 5.359375 
Q 44.046875 -1.421875 33.015625 -1.421875 
Q 20.359375 -1.421875 13.671875 8.265625 
Q 6.984375 17.96875 6.984375 36.375 
Q 6.984375 53.65625 15.1875 63.9375 
Q 23.390625 74.21875 37.203125 74.21875 
Q 40.921875 74.21875 44.703125 73.484375 
Q 48.484375 72.75 52.59375 71.296875 
z
" id="DejaVuSans-36"/>
       <path d="M 10.984375 1.515625 
L 10.984375 10.5 
Q 14.703125 8.734375 18.5 7.8125 
Q 22.3125 6.890625 25.984375 6.890625 
Q 35.75 6.890625 40.890625 13.453125 
Q 46.046875 20.015625 46.78125 33.40625 
Q 43.953125 29.203125 39.59375 26.953125 
Q 35.25 24.703125 29.984375 24.703125 
Q 19.046875 24.703125 12.671875 31.3125 
Q 6.296875 37.9375 6.296875 49.421875 
Q 6.296875 60.640625 12.9375 67.421875 
Q 19.578125 74.21875 30.609375 74.21875 
Q 43.265625 74.21875 49.921875 64.515625 
Q 56.59375 54.828125 56.59375 36.375 
Q 56.59375 19.140625 48.40625 8.859375 
Q 40.234375 -1.421875 26.421875 -1.421875 
Q 22.703125 -1.421875 18.890625 -0.6875 
Q 15.09375 0.046875 10.984375 1.515625 
z
M 30.609375 32.421875 
Q 37.25 32.421875 41.125 36.953125 
Q 45.015625 41.5 45.015625 49.421875 
Q 45.015625 57.28125 41.125 61.84375 
Q 37.25 66.40625 30.609375 66.40625 
Q 23.96875 66.40625 20.09375 61.84375 
Q 16.21875 57.28125 16.21875 49.421875 
Q 16.21875 41.5 20.09375 36.953125 
Q 23.96875 32.421875 30.609375 32.421875 
z
" id="DejaVuSans-39"/>
       <path id="DejaVuSans-20"/>
       <path d="M 18.3125 70.21875 
L 18.3125 54.6875 
L 36.8125 54.6875 
L 36.8125 47.703125 
L 18.3125 47.703125 
L 18.3125 18.015625 
Q 18.3125 11.328125 20.140625 9.421875 
Q 21.96875 7.515625 27.59375 7.515625 
L 36.8125 7.515625 
L 36.8125 0 
L 27.59375 0 
Q 17.1875 0 13.234375 3.875 
Q 9.28125 7.765625 9.28125 18.015625 
L 9.28125 47.703125 
L 2.6875 47.703125 
L 2.6875 54.6875 
L 9.28125 54.6875 
L 9.28125 70.21875 
z
" id="DejaVuSans-74"/>
       <path d="M 30.609375 48.390625 
Q 23.390625 48.390625 19.1875 42.75 
Q 14.984375 37.109375 14.984375 27.296875 
Q 14.984375 17.484375 19.15625 11.84375 
Q 23.34375 6.203125 30.609375 6.203125 
Q 37.796875 6.203125 41.984375 11.859375 
Q 46.1875 17.53125 46.1875 27.296875 
Q 46.1875 37.015625 41.984375 42.703125 
Q 37.796875 48.390625 30.609375 48.390625 
z
M 30.609375 56 
Q 42.328125 56 49.015625 48.375 
Q 55.71875 40.765625 55.71875 27.296875 
Q 55.71875 13.875 49.015625 6.21875 
Q 42.328125 -1.421875 30.609375 -1.421875 
Q 18.84375 -1.421875 12.171875 6.21875 
Q 5.515625 13.875 5.515625 27.296875 
Q 5.515625 40.765625 12.171875 48.375 
Q 18.84375 56 30.609375 56 
z
" id="DejaVuSans-6f"/>
      </defs>
      <g transform="translate(37.523438 354.164324)scale(0.1 -0.1)">
       <use xlink:href="#DejaVuSans-30"/>
       <use x="63.623047" xlink:href="#DejaVuSans-2e"/>
       <use x="95.410156" xlink:href="#DejaVuSans-30"/>
       <use x="159.033203" xlink:href="#DejaVuSans-38"/>
       <use x="222.65625" xlink:href="#DejaVuSans-36"/>
       <use x="286.279297" xlink:href="#DejaVuSans-39"/>
       <use x="349.902344" xlink:href="#DejaVuSans-20"/>
       <use x="381.689453" xlink:href="#DejaVuSans-74"/>
       <use x="420.898438" xlink:href="#DejaVuSans-6f"/>
       <use x="482.080078" xlink:href="#DejaVuSans-20"/>
       <use x="513.867188" xlink:href="#DejaVuSans-38"/>
       <use x="577.490234" xlink:href="#DejaVuSans-2e"/>
       <use x="609.277344" xlink:href="#DejaVuSans-31"/>
       <use x="672.900391" xlink:href="#DejaVuSans-35"/>
      </g>
     </g>
    </g>
    <g id="ytick_2">
     <g id="line2d_8">
      <g>
       <use style="stroke:#000000;stroke-width:0.8;" x="118.175" xlink:href="#m7ff073b61a" y="320.168595"/>
      </g>
     </g>
     <g id="text_9">
      <!-- 8.16 to 16.133 -->
      <defs>
       <path d="M 40.578125 39.3125 
Q 47.65625 37.796875 51.625 33 
Q 55.609375 28.21875 55.609375 21.1875 
Q 55.609375 10.40625 48.1875 4.484375 
Q 40.765625 -1.421875 27.09375 -1.421875 
Q 22.515625 -1.421875 17.65625 -0.515625 
Q 12.796875 0.390625 7.625 2.203125 
L 7.625 11.71875 
Q 11.71875 9.328125 16.59375 8.109375 
Q 21.484375 6.890625 26.8125 6.890625 
Q 36.078125 6.890625 40.9375 10.546875 
Q 45.796875 14.203125 45.796875 21.1875 
Q 45.796875 27.640625 41.28125 31.265625 
Q 36.765625 34.90625 28.71875 34.90625 
L 20.21875 34.90625 
L 20.21875 43.015625 
L 29.109375 43.015625 
Q 36.375 43.015625 40.234375 45.921875 
Q 44.09375 48.828125 44.09375 54.296875 
Q 44.09375 59.90625 40.109375 62.90625 
Q 36.140625 65.921875 28.71875 65.921875 
Q 24.65625 65.921875 20.015625 65.03125 
Q 15.375 64.15625 9.8125 62.3125 
L 9.8125 71.09375 
Q 15.4375 72.65625 20.34375 73.4375 
Q 25.25 74.21875 29.59375 74.21875 
Q 40.828125 74.21875 47.359375 69.109375 
Q 53.90625 64.015625 53.90625 55.328125 
Q 53.90625 49.265625 50.4375 45.09375 
Q 46.96875 40.921875 40.578125 39.3125 
z
" id="DejaVuSans-33"/>
      </defs>
      <g transform="translate(37.523438 323.967814)scale(0.1 -0.1)">
       <use xlink:href="#DejaVuSans-38"/>
       <use x="63.623047" xlink:href="#DejaVuSans-2e"/>
       <use x="95.410156" xlink:href="#DejaVuSans-31"/>
       <use x="159.033203" xlink:href="#DejaVuSans-36"/>
       <use x="222.65625" xlink:href="#DejaVuSans-20"/>
       <use x="254.443359" xlink:href="#DejaVuSans-74"/>
       <use x="293.652344" xlink:href="#DejaVuSans-6f"/>
       <use x="354.833984" xlink:href="#DejaVuSans-20"/>
       <use x="386.621094" xlink:href="#DejaVuSans-31"/>
       <use x="450.244141" xlink:href="#DejaVuSans-36"/>
       <use x="513.867188" xlink:href="#DejaVuSans-2e"/>
       <use x="545.654297" xlink:href="#DejaVuSans-31"/>
       <use x="609.277344" xlink:href="#DejaVuSans-33"/>
       <use x="672.900391" xlink:href="#DejaVuSans-33"/>
      </g>
     </g>
    </g>
    <g id="ytick_3">
     <g id="line2d_9">
      <g>
       <use style="stroke:#000000;stroke-width:0.8;" x="118.175" xlink:href="#m7ff073b61a" y="289.972084"/>
      </g>
     </g>
     <g id="text_10">
      <!-- 16.134 to 24.117 -->
      <defs>
       <path d="M 37.796875 64.3125 
L 12.890625 25.390625 
L 37.796875 25.390625 
z
M 35.203125 72.90625 
L 47.609375 72.90625 
L 47.609375 25.390625 
L 58.015625 25.390625 
L 58.015625 17.1875 
L 47.609375 17.1875 
L 47.609375 0 
L 37.796875 0 
L 37.796875 17.1875 
L 4.890625 17.1875 
L 4.890625 26.703125 
z
" id="DejaVuSans-34"/>
       <path d="M 8.203125 72.90625 
L 55.078125 72.90625 
L 55.078125 68.703125 
L 28.609375 0 
L 18.3125 0 
L 43.21875 64.59375 
L 8.203125 64.59375 
z
" id="DejaVuSans-37"/>
      </defs>
      <g transform="translate(24.798438 293.771303)scale(0.1 -0.1)">
       <use xlink:href="#DejaVuSans-31"/>
       <use x="63.623047" xlink:href="#DejaVuSans-36"/>
       <use x="127.246094" xlink:href="#DejaVuSans-2e"/>
       <use x="159.033203" xlink:href="#DejaVuSans-31"/>
       <use x="222.65625" xlink:href="#DejaVuSans-33"/>
       <use x="286.279297" xlink:href="#DejaVuSans-34"/>
       <use x="349.902344" xlink:href="#DejaVuSans-20"/>
       <use x="381.689453" xlink:href="#DejaVuSans-74"/>
       <use x="420.898438" xlink:href="#DejaVuSans-6f"/>
       <use x="482.080078" xlink:href="#DejaVuSans-20"/>
       <use x="513.867188" xlink:href="#DejaVuSans-32"/>
       <use x="577.490234" xlink:href="#DejaVuSans-34"/>
       <use x="641.113281" xlink:href="#DejaVuSans-2e"/>
       <use x="672.900391" xlink:href="#DejaVuSans-31"/>
       <use x="736.523438" xlink:href="#DejaVuSans-31"/>
       <use x="800.146484" xlink:href="#DejaVuSans-37"/>
      </g>
     </g>
    </g>
    <g id="ytick_4">
     <g id="line2d_10">
      <g>
       <use style="stroke:#000000;stroke-width:0.8;" x="118.175" xlink:href="#m7ff073b61a" y="259.775574"/>
      </g>
     </g>
     <g id="text_11">
      <!-- 24.117 to 32.1 -->
      <g transform="translate(37.523438 263.574793)scale(0.1 -0.1)">
       <use xlink:href="#DejaVuSans-32"/>
       <use x="63.623047" xlink:href="#DejaVuSans-34"/>
       <use x="127.246094" xlink:href="#DejaVuSans-2e"/>
       <use x="159.033203" xlink:href="#DejaVuSans-31"/>
       <use x="222.65625" xlink:href="#DejaVuSans-31"/>
       <use x="286.279297" xlink:href="#DejaVuSans-37"/>
       <use x="349.902344" xlink:href="#DejaVuSans-20"/>
       <use x="381.689453" xlink:href="#DejaVuSans-74"/>
       <use x="420.898438" xlink:href="#DejaVuSans-6f"/>
       <use x="482.080078" xlink:href="#DejaVuSans-20"/>
       <use x="513.867188" xlink:href="#DejaVuSans-33"/>
       <use x="577.490234" xlink:href="#DejaVuSans-32"/>
       <use x="641.113281" xlink:href="#DejaVuSans-2e"/>
       <use x="672.900391" xlink:href="#DejaVuSans-31"/>
      </g>
     </g>
    </g>
    <g id="ytick_5">
     <g id="line2d_11">
      <g>
       <use style="stroke:#000000;stroke-width:0.8;" x="118.175" xlink:href="#m7ff073b61a" y="229.579063"/>
      </g>
     </g>
     <g id="text_12">
      <!-- 32.2 to 40.083 -->
      <g transform="translate(37.523438 233.378282)scale(0.1 -0.1)">
       <use xlink:href="#DejaVuSans-33"/>
       <use x="63.623047" xlink:href="#DejaVuSans-32"/>
       <use x="127.246094" xlink:href="#DejaVuSans-2e"/>
       <use x="159.033203" xlink:href="#DejaVuSans-32"/>
       <use x="222.65625" xlink:href="#DejaVuSans-20"/>
       <use x="254.443359" xlink:href="#DejaVuSans-74"/>
       <use x="293.652344" xlink:href="#DejaVuSans-6f"/>
       <use x="354.833984" xlink:href="#DejaVuSans-20"/>
       <use x="386.621094" xlink:href="#DejaVuSans-34"/>
       <use x="450.244141" xlink:href="#DejaVuSans-30"/>
       <use x="513.867188" xlink:href="#DejaVuSans-2e"/>
       <use x="545.654297" xlink:href="#DejaVuSans-30"/>
       <use x="609.277344" xlink:href="#DejaVuSans-38"/>
       <use x="672.900391" xlink:href="#DejaVuSans-33"/>
      </g>
     </g>
    </g>
    <g id="ytick_6">
     <g id="line2d_12">
      <g>
       <use style="stroke:#000000;stroke-width:0.8;" x="118.175" xlink:href="#m7ff073b61a" y="199.382553"/>
      </g>
     </g>
     <g id="text_13">
      <!-- 40.084 to 48.067 -->
      <g transform="translate(24.798438 203.181772)scale(0.1 -0.1)">
       <use xlink:href="#DejaVuSans-34"/>
       <use x="63.623047" xlink:href="#DejaVuSans-30"/>
       <use x="127.246094" xlink:href="#DejaVuSans-2e"/>
       <use x="159.033203" xlink:href="#DejaVuSans-30"/>
       <use x="222.65625" xlink:href="#DejaVuSans-38"/>
       <use x="286.279297" xlink:href="#DejaVuSans-34"/>
       <use x="349.902344" xlink:href="#DejaVuSans-20"/>
       <use x="381.689453" xlink:href="#DejaVuSans-74"/>
       <use x="420.898438" xlink:href="#DejaVuSans-6f"/>
       <use x="482.080078" xlink:href="#DejaVuSans-20"/>
       <use x="513.867188" xlink:href="#DejaVuSans-34"/>
       <use x="577.490234" xlink:href="#DejaVuSans-38"/>
       <use x="641.113281" xlink:href="#DejaVuSans-2e"/>
       <use x="672.900391" xlink:href="#DejaVuSans-30"/>
       <use x="736.523438" xlink:href="#DejaVuSans-36"/>
       <use x="800.146484" xlink:href="#DejaVuSans-37"/>
      </g>
     </g>
    </g>
    <g id="ytick_7">
     <g id="line2d_13">
      <g>
       <use style="stroke:#000000;stroke-width:0.8;" x="118.175" xlink:href="#m7ff073b61a" y="169.186042"/>
      </g>
     </g>
     <g id="text_14">
      <!-- 48.068, 56.05 -->
      <defs>
       <path d="M 11.71875 12.40625 
L 22.015625 12.40625 
L 22.015625 4 
L 14.015625 -11.625 
L 7.71875 -11.625 
L 11.71875 4 
z
" id="DejaVuSans-2c"/>
      </defs>
      <g transform="translate(41.2 172.985261)scale(0.1 -0.1)">
       <use xlink:href="#DejaVuSans-34"/>
       <use x="63.623047" xlink:href="#DejaVuSans-38"/>
       <use x="127.246094" xlink:href="#DejaVuSans-2e"/>
       <use x="159.033203" xlink:href="#DejaVuSans-30"/>
       <use x="222.65625" xlink:href="#DejaVuSans-36"/>
       <use x="286.279297" xlink:href="#DejaVuSans-38"/>
       <use x="349.902344" xlink:href="#DejaVuSans-2c"/>
       <use x="381.689453" xlink:href="#DejaVuSans-20"/>
       <use x="413.476562" xlink:href="#DejaVuSans-35"/>
       <use x="477.099609" xlink:href="#DejaVuSans-36"/>
       <use x="540.722656" xlink:href="#DejaVuSans-2e"/>
       <use x="572.509766" xlink:href="#DejaVuSans-30"/>
       <use x="636.132812" xlink:href="#DejaVuSans-35"/>
      </g>
     </g>
    </g>
    <g id="ytick_8">
     <g id="line2d_14">
      <g>
       <use style="stroke:#000000;stroke-width:0.8;" x="118.175" xlink:href="#m7ff073b61a" y="138.989532"/>
      </g>
     </g>
     <g id="text_15">
      <!-- 56.06 to 64.033 -->
      <g transform="translate(31.160938 142.78875)scale(0.1 -0.1)">
       <use xlink:href="#DejaVuSans-35"/>
       <use x="63.623047" xlink:href="#DejaVuSans-36"/>
       <use x="127.246094" xlink:href="#DejaVuSans-2e"/>
       <use x="159.033203" xlink:href="#DejaVuSans-30"/>
       <use x="222.65625" xlink:href="#DejaVuSans-36"/>
       <use x="286.279297" xlink:href="#DejaVuSans-20"/>
       <use x="318.066406" xlink:href="#DejaVuSans-74"/>
       <use x="357.275391" xlink:href="#DejaVuSans-6f"/>
       <use x="418.457031" xlink:href="#DejaVuSans-20"/>
       <use x="450.244141" xlink:href="#DejaVuSans-36"/>
       <use x="513.867188" xlink:href="#DejaVuSans-34"/>
       <use x="577.490234" xlink:href="#DejaVuSans-2e"/>
       <use x="609.277344" xlink:href="#DejaVuSans-30"/>
       <use x="672.900391" xlink:href="#DejaVuSans-33"/>
       <use x="736.523438" xlink:href="#DejaVuSans-33"/>
      </g>
     </g>
    </g>
    <g id="ytick_9">
     <g id="line2d_15">
      <g>
       <use style="stroke:#000000;stroke-width:0.8;" x="118.175" xlink:href="#m7ff073b61a" y="108.793021"/>
      </g>
     </g>
     <g id="text_16">
      <!-- 64.033 to 72.017 -->
      <g transform="translate(24.798438 112.59224)scale(0.1 -0.1)">
       <use xlink:href="#DejaVuSans-36"/>
       <use x="63.623047" xlink:href="#DejaVuSans-34"/>
       <use x="127.246094" xlink:href="#DejaVuSans-2e"/>
       <use x="159.033203" xlink:href="#DejaVuSans-30"/>
       <use x="222.65625" xlink:href="#DejaVuSans-33"/>
       <use x="286.279297" xlink:href="#DejaVuSans-33"/>
       <use x="349.902344" xlink:href="#DejaVuSans-20"/>
       <use x="381.689453" xlink:href="#DejaVuSans-74"/>
       <use x="420.898438" xlink:href="#DejaVuSans-6f"/>
       <use x="482.080078" xlink:href="#DejaVuSans-20"/>
       <use x="513.867188" xlink:href="#DejaVuSans-37"/>
       <use x="577.490234" xlink:href="#DejaVuSans-32"/>
       <use x="641.113281" xlink:href="#DejaVuSans-2e"/>
       <use x="672.900391" xlink:href="#DejaVuSans-30"/>
       <use x="736.523438" xlink:href="#DejaVuSans-31"/>
       <use x="800.146484" xlink:href="#DejaVuSans-37"/>
      </g>
     </g>
    </g>
    <g id="ytick_10">
     <g id="line2d_16">
      <g>
       <use style="stroke:#000000;stroke-width:0.8;" x="118.175" xlink:href="#m7ff073b61a" y="78.596511"/>
      </g>
     </g>
     <g id="text_17">
      <!-- 72.017, 80.0 -->
      <g transform="translate(47.5625 82.395729)scale(0.1 -0.1)">
       <use xlink:href="#DejaVuSans-37"/>
       <use x="63.623047" xlink:href="#DejaVuSans-32"/>
       <use x="127.246094" xlink:href="#DejaVuSans-2e"/>
       <use x="159.033203" xlink:href="#DejaVuSans-30"/>
       <use x="222.65625" xlink:href="#DejaVuSans-31"/>
       <use x="286.279297" xlink:href="#DejaVuSans-37"/>
       <use x="349.902344" xlink:href="#DejaVuSans-2c"/>
       <use x="381.689453" xlink:href="#DejaVuSans-20"/>
       <use x="413.476562" xlink:href="#DejaVuSans-38"/>
       <use x="477.099609" xlink:href="#DejaVuSans-30"/>
       <use x="540.722656" xlink:href="#DejaVuSans-2e"/>
       <use x="572.509766" xlink:href="#DejaVuSans-30"/>
      </g>
     </g>
    </g>
    <g id="ytick_11">
     <g id="line2d_17">
      <g>
       <use style="stroke:#000000;stroke-width:0.8;" x="118.175" xlink:href="#m7ff073b61a" y="48.4"/>
      </g>
     </g>
    </g>
    <g id="text_18">
     <!-- Bins -->
     <defs>
      <path d="M 19.671875 34.8125 
L 19.671875 8.109375 
L 35.5 8.109375 
Q 43.453125 8.109375 47.28125 11.40625 
Q 51.125 14.703125 51.125 21.484375 
Q 51.125 28.328125 47.28125 31.5625 
Q 43.453125 34.8125 35.5 34.8125 
z
M 19.671875 64.796875 
L 19.671875 42.828125 
L 34.28125 42.828125 
Q 41.5 42.828125 45.03125 45.53125 
Q 48.578125 48.25 48.578125 53.8125 
Q 48.578125 59.328125 45.03125 62.0625 
Q 41.5 64.796875 34.28125 64.796875 
z
M 9.8125 72.90625 
L 35.015625 72.90625 
Q 46.296875 72.90625 52.390625 68.21875 
Q 58.5 63.53125 58.5 54.890625 
Q 58.5 48.1875 55.375 44.234375 
Q 52.25 40.28125 46.1875 39.3125 
Q 53.46875 37.75 57.5 32.78125 
Q 61.53125 27.828125 61.53125 20.40625 
Q 61.53125 10.640625 54.890625 5.3125 
Q 48.25 0 35.984375 0 
L 9.8125 0 
z
" id="DejaVuSans-42"/>
      <path d="M 9.421875 54.6875 
L 18.40625 54.6875 
L 18.40625 0 
L 9.421875 0 
z
M 9.421875 75.984375 
L 18.40625 75.984375 
L 18.40625 64.59375 
L 9.421875 64.59375 
z
" id="DejaVuSans-69"/>
      <path d="M 44.28125 53.078125 
L 44.28125 44.578125 
Q 40.484375 46.53125 36.375 47.5 
Q 32.28125 48.484375 27.875 48.484375 
Q 21.1875 48.484375 17.84375 46.4375 
Q 14.5 44.390625 14.5 40.28125 
Q 14.5 37.15625 16.890625 35.375 
Q 19.28125 33.59375 26.515625 31.984375 
L 29.59375 31.296875 
Q 39.15625 29.25 43.1875 25.515625 
Q 47.21875 21.78125 47.21875 15.09375 
Q 47.21875 7.46875 41.1875 3.015625 
Q 35.15625 -1.421875 24.609375 -1.421875 
Q 20.21875 -1.421875 15.453125 -0.5625 
Q 10.6875 0.296875 5.421875 2 
L 5.421875 11.28125 
Q 10.40625 8.6875 15.234375 7.390625 
Q 20.0625 6.109375 24.8125 6.109375 
Q 31.15625 6.109375 34.5625 8.28125 
Q 37.984375 10.453125 37.984375 14.40625 
Q 37.984375 18.0625 35.515625 20.015625 
Q 33.0625 21.96875 24.703125 23.78125 
L 21.578125 24.515625 
Q 13.234375 26.265625 9.515625 29.90625 
Q 5.8125 33.546875 5.8125 39.890625 
Q 5.8125 47.609375 11.28125 51.796875 
Q 16.75 56 26.8125 56 
Q 31.78125 56 36.171875 55.265625 
Q 40.578125 54.546875 44.28125 53.078125 
z
" id="DejaVuSans-73"/>
     </defs>
     <g transform="translate(18.71875 223.412969)rotate(-90)scale(0.1 -0.1)">
      <use xlink:href="#DejaVuSans-42"/>
      <use x="68.603516" xlink:href="#DejaVuSans-69"/>
      <use x="96.386719" xlink:href="#DejaVuSans-6e"/>
      <use x="159.765625" xlink:href="#DejaVuSans-73"/>
     </g>
    </g>
   </g>
   <g id="patch_13">
    <path d="M 118.175 377.24 
L 118.175 48.4 
" style="fill:none;stroke:#000000;stroke-linecap:square;stroke-linejoin:miter;stroke-width:0.8;"/>
   </g>
   <g id="patch_14">
    <path d="M 576.6625 377.24 
L 576.6625 48.4 
" style="fill:none;stroke:#000000;stroke-linecap:square;stroke-linejoin:miter;stroke-width:0.8;"/>
   </g>
   <g id="patch_15">
    <path d="M 118.175 377.24 
L 576.6625 377.24 
" style="fill:none;stroke:#000000;stroke-linecap:square;stroke-linejoin:miter;stroke-width:0.8;"/>
   </g>
   <g id="patch_16">
    <path d="M 118.175 48.4 
L 576.6625 48.4 
" style="fill:none;stroke:#000000;stroke-linecap:square;stroke-linejoin:miter;stroke-width:0.8;"/>
   </g>
   <g id="text_19">
    <!-- Using pd.cut() - The Frequency of Data Per Bin -->
    <defs>
     <path d="M 8.6875 72.90625 
L 18.609375 72.90625 
L 18.609375 28.609375 
Q 18.609375 16.890625 22.84375 11.734375 
Q 27.09375 6.59375 36.625 6.59375 
Q 46.09375 6.59375 50.34375 11.734375 
Q 54.59375 16.890625 54.59375 28.609375 
L 54.59375 72.90625 
L 64.5 72.90625 
L 64.5 27.390625 
Q 64.5 13.140625 57.4375 5.859375 
Q 50.390625 -1.421875 36.625 -1.421875 
Q 22.796875 -1.421875 15.734375 5.859375 
Q 8.6875 13.140625 8.6875 27.390625 
z
" id="DejaVuSans-55"/>
     <path d="M 45.40625 27.984375 
Q 45.40625 37.75 41.375 43.109375 
Q 37.359375 48.484375 30.078125 48.484375 
Q 22.859375 48.484375 18.828125 43.109375 
Q 14.796875 37.75 14.796875 27.984375 
Q 14.796875 18.265625 18.828125 12.890625 
Q 22.859375 7.515625 30.078125 7.515625 
Q 37.359375 7.515625 41.375 12.890625 
Q 45.40625 18.265625 45.40625 27.984375 
z
M 54.390625 6.78125 
Q 54.390625 -7.171875 48.1875 -13.984375 
Q 42 -20.796875 29.203125 -20.796875 
Q 24.46875 -20.796875 20.265625 -20.09375 
Q 16.0625 -19.390625 12.109375 -17.921875 
L 12.109375 -9.1875 
Q 16.0625 -11.328125 19.921875 -12.34375 
Q 23.78125 -13.375 27.78125 -13.375 
Q 36.625 -13.375 41.015625 -8.765625 
Q 45.40625 -4.15625 45.40625 5.171875 
L 45.40625 9.625 
Q 42.625 4.78125 38.28125 2.390625 
Q 33.9375 0 27.875 0 
Q 17.828125 0 11.671875 7.65625 
Q 5.515625 15.328125 5.515625 27.984375 
Q 5.515625 40.671875 11.671875 48.328125 
Q 17.828125 56 27.875 56 
Q 33.9375 56 38.28125 53.609375 
Q 42.625 51.21875 45.40625 46.390625 
L 45.40625 54.6875 
L 54.390625 54.6875 
z
" id="DejaVuSans-67"/>
     <path d="M 18.109375 8.203125 
L 18.109375 -20.796875 
L 9.078125 -20.796875 
L 9.078125 54.6875 
L 18.109375 54.6875 
L 18.109375 46.390625 
Q 20.953125 51.265625 25.265625 53.625 
Q 29.59375 56 35.59375 56 
Q 45.5625 56 51.78125 48.09375 
Q 58.015625 40.1875 58.015625 27.296875 
Q 58.015625 14.40625 51.78125 6.484375 
Q 45.5625 -1.421875 35.59375 -1.421875 
Q 29.59375 -1.421875 25.265625 0.953125 
Q 20.953125 3.328125 18.109375 8.203125 
z
M 48.6875 27.296875 
Q 48.6875 37.203125 44.609375 42.84375 
Q 40.53125 48.484375 33.40625 48.484375 
Q 26.265625 48.484375 22.1875 42.84375 
Q 18.109375 37.203125 18.109375 27.296875 
Q 18.109375 17.390625 22.1875 11.75 
Q 26.265625 6.109375 33.40625 6.109375 
Q 40.53125 6.109375 44.609375 11.75 
Q 48.6875 17.390625 48.6875 27.296875 
z
" id="DejaVuSans-70"/>
     <path d="M 45.40625 46.390625 
L 45.40625 75.984375 
L 54.390625 75.984375 
L 54.390625 0 
L 45.40625 0 
L 45.40625 8.203125 
Q 42.578125 3.328125 38.25 0.953125 
Q 33.9375 -1.421875 27.875 -1.421875 
Q 17.96875 -1.421875 11.734375 6.484375 
Q 5.515625 14.40625 5.515625 27.296875 
Q 5.515625 40.1875 11.734375 48.09375 
Q 17.96875 56 27.875 56 
Q 33.9375 56 38.25 53.625 
Q 42.578125 51.265625 45.40625 46.390625 
z
M 14.796875 27.296875 
Q 14.796875 17.390625 18.875 11.75 
Q 22.953125 6.109375 30.078125 6.109375 
Q 37.203125 6.109375 41.296875 11.75 
Q 45.40625 17.390625 45.40625 27.296875 
Q 45.40625 37.203125 41.296875 42.84375 
Q 37.203125 48.484375 30.078125 48.484375 
Q 22.953125 48.484375 18.875 42.84375 
Q 14.796875 37.203125 14.796875 27.296875 
z
" id="DejaVuSans-64"/>
     <path d="M 31 75.875 
Q 24.46875 64.65625 21.28125 53.65625 
Q 18.109375 42.671875 18.109375 31.390625 
Q 18.109375 20.125 21.3125 9.0625 
Q 24.515625 -2 31 -13.1875 
L 23.1875 -13.1875 
Q 15.875 -1.703125 12.234375 9.375 
Q 8.59375 20.453125 8.59375 31.390625 
Q 8.59375 42.28125 12.203125 53.3125 
Q 15.828125 64.359375 23.1875 75.875 
z
" id="DejaVuSans-28"/>
     <path d="M 8.015625 75.875 
L 15.828125 75.875 
Q 23.140625 64.359375 26.78125 53.3125 
Q 30.421875 42.28125 30.421875 31.390625 
Q 30.421875 20.453125 26.78125 9.375 
Q 23.140625 -1.703125 15.828125 -13.1875 
L 8.015625 -13.1875 
Q 14.5 -2 17.703125 9.0625 
Q 20.90625 20.125 20.90625 31.390625 
Q 20.90625 42.671875 17.703125 53.65625 
Q 14.5 64.65625 8.015625 75.875 
z
" id="DejaVuSans-29"/>
     <path d="M 4.890625 31.390625 
L 31.203125 31.390625 
L 31.203125 23.390625 
L 4.890625 23.390625 
z
" id="DejaVuSans-2d"/>
     <path d="M -0.296875 72.90625 
L 61.375 72.90625 
L 61.375 64.59375 
L 35.5 64.59375 
L 35.5 0 
L 25.59375 0 
L 25.59375 64.59375 
L -0.296875 64.59375 
z
" id="DejaVuSans-54"/>
     <path d="M 54.890625 33.015625 
L 54.890625 0 
L 45.90625 0 
L 45.90625 32.71875 
Q 45.90625 40.484375 42.875 44.328125 
Q 39.84375 48.1875 33.796875 48.1875 
Q 26.515625 48.1875 22.3125 43.546875 
Q 18.109375 38.921875 18.109375 30.90625 
L 18.109375 0 
L 9.078125 0 
L 9.078125 75.984375 
L 18.109375 75.984375 
L 18.109375 46.1875 
Q 21.34375 51.125 25.703125 53.5625 
Q 30.078125 56 35.796875 56 
Q 45.21875 56 50.046875 50.171875 
Q 54.890625 44.34375 54.890625 33.015625 
z
" id="DejaVuSans-68"/>
     <path d="M 37.109375 75.984375 
L 37.109375 68.5 
L 28.515625 68.5 
Q 23.6875 68.5 21.796875 66.546875 
Q 19.921875 64.59375 19.921875 59.515625 
L 19.921875 54.6875 
L 34.71875 54.6875 
L 34.71875 47.703125 
L 19.921875 47.703125 
L 19.921875 0 
L 10.890625 0 
L 10.890625 47.703125 
L 2.296875 47.703125 
L 2.296875 54.6875 
L 10.890625 54.6875 
L 10.890625 58.5 
Q 10.890625 67.625 15.140625 71.796875 
Q 19.390625 75.984375 28.609375 75.984375 
z
" id="DejaVuSans-66"/>
     <path d="M 19.671875 64.796875 
L 19.671875 8.109375 
L 31.59375 8.109375 
Q 46.6875 8.109375 53.6875 14.9375 
Q 60.6875 21.78125 60.6875 36.53125 
Q 60.6875 51.171875 53.6875 57.984375 
Q 46.6875 64.796875 31.59375 64.796875 
z
M 9.8125 72.90625 
L 30.078125 72.90625 
Q 51.265625 72.90625 61.171875 64.09375 
Q 71.09375 55.28125 71.09375 36.53125 
Q 71.09375 17.671875 61.125 8.828125 
Q 51.171875 0 30.078125 0 
L 9.8125 0 
z
" id="DejaVuSans-44"/>
     <path d="M 34.28125 27.484375 
Q 23.390625 27.484375 19.1875 25 
Q 14.984375 22.515625 14.984375 16.5 
Q 14.984375 11.71875 18.140625 8.90625 
Q 21.296875 6.109375 26.703125 6.109375 
Q 34.1875 6.109375 38.703125 11.40625 
Q 43.21875 16.703125 43.21875 25.484375 
L 43.21875 27.484375 
z
M 52.203125 31.203125 
L 52.203125 0 
L 43.21875 0 
L 43.21875 8.296875 
Q 40.140625 3.328125 35.546875 0.953125 
Q 30.953125 -1.421875 24.3125 -1.421875 
Q 15.921875 -1.421875 10.953125 3.296875 
Q 6 8.015625 6 15.921875 
Q 6 25.140625 12.171875 29.828125 
Q 18.359375 34.515625 30.609375 34.515625 
L 43.21875 34.515625 
L 43.21875 35.40625 
Q 43.21875 41.609375 39.140625 45 
Q 35.0625 48.390625 27.6875 48.390625 
Q 23 48.390625 18.546875 47.265625 
Q 14.109375 46.140625 10.015625 43.890625 
L 10.015625 52.203125 
Q 14.9375 54.109375 19.578125 55.046875 
Q 24.21875 56 28.609375 56 
Q 40.484375 56 46.34375 49.84375 
Q 52.203125 43.703125 52.203125 31.203125 
z
" id="DejaVuSans-61"/>
     <path d="M 19.671875 64.796875 
L 19.671875 37.40625 
L 32.078125 37.40625 
Q 38.96875 37.40625 42.71875 40.96875 
Q 46.484375 44.53125 46.484375 51.125 
Q 46.484375 57.671875 42.71875 61.234375 
Q 38.96875 64.796875 32.078125 64.796875 
z
M 9.8125 72.90625 
L 32.078125 72.90625 
Q 44.34375 72.90625 50.609375 67.359375 
Q 56.890625 61.8125 56.890625 51.125 
Q 56.890625 40.328125 50.609375 34.8125 
Q 44.34375 29.296875 32.078125 29.296875 
L 19.671875 29.296875 
L 19.671875 0 
L 9.8125 0 
z
" id="DejaVuSans-50"/>
    </defs>
    <g transform="translate(207.358125 42.4)scale(0.12 -0.12)">
     <use xlink:href="#DejaVuSans-55"/>
     <use x="73.193359" xlink:href="#DejaVuSans-73"/>
     <use x="125.292969" xlink:href="#DejaVuSans-69"/>
     <use x="153.076172" xlink:href="#DejaVuSans-6e"/>
     <use x="216.455078" xlink:href="#DejaVuSans-67"/>
     <use x="279.931641" xlink:href="#DejaVuSans-20"/>
     <use x="311.71875" xlink:href="#DejaVuSans-70"/>
     <use x="375.195312" xlink:href="#DejaVuSans-64"/>
     <use x="438.671875" xlink:href="#DejaVuSans-2e"/>
     <use x="470.458984" xlink:href="#DejaVuSans-63"/>
     <use x="525.439453" xlink:href="#DejaVuSans-75"/>
     <use x="588.818359" xlink:href="#DejaVuSans-74"/>
     <use x="628.027344" xlink:href="#DejaVuSans-28"/>
     <use x="667.041016" xlink:href="#DejaVuSans-29"/>
     <use x="706.054688" xlink:href="#DejaVuSans-20"/>
     <use x="737.841797" xlink:href="#DejaVuSans-2d"/>
     <use x="773.925781" xlink:href="#DejaVuSans-20"/>
     <use x="805.712891" xlink:href="#DejaVuSans-54"/>
     <use x="866.796875" xlink:href="#DejaVuSans-68"/>
     <use x="930.175781" xlink:href="#DejaVuSans-65"/>
     <use x="991.699219" xlink:href="#DejaVuSans-20"/>
     <use x="1023.486328" xlink:href="#DejaVuSans-46"/>
     <use x="1080.896484" xlink:href="#DejaVuSans-72"/>
     <use x="1121.978516" xlink:href="#DejaVuSans-65"/>
     <use x="1183.501953" xlink:href="#DejaVuSans-71"/>
     <use x="1246.978516" xlink:href="#DejaVuSans-75"/>
     <use x="1310.357422" xlink:href="#DejaVuSans-65"/>
     <use x="1371.880859" xlink:href="#DejaVuSans-6e"/>
     <use x="1435.259766" xlink:href="#DejaVuSans-63"/>
     <use x="1490.240234" xlink:href="#DejaVuSans-79"/>
     <use x="1549.419922" xlink:href="#DejaVuSans-20"/>
     <use x="1581.207031" xlink:href="#DejaVuSans-6f"/>
     <use x="1642.388672" xlink:href="#DejaVuSans-66"/>
     <use x="1677.59375" xlink:href="#DejaVuSans-20"/>
     <use x="1709.380859" xlink:href="#DejaVuSans-44"/>
     <use x="1786.382812" xlink:href="#DejaVuSans-61"/>
     <use x="1847.662109" xlink:href="#DejaVuSans-74"/>
     <use x="1886.871094" xlink:href="#DejaVuSans-61"/>
     <use x="1948.150391" xlink:href="#DejaVuSans-20"/>
     <use x="1979.9375" xlink:href="#DejaVuSans-50"/>
     <use x="2040.193359" xlink:href="#DejaVuSans-65"/>
     <use x="2101.716797" xlink:href="#DejaVuSans-72"/>
     <use x="2142.830078" xlink:href="#DejaVuSans-20"/>
     <use x="2174.617188" xlink:href="#DejaVuSans-42"/>
     <use x="2243.220703" xlink:href="#DejaVuSans-69"/>
     <use x="2271.003906" xlink:href="#DejaVuSans-6e"/>
    </g>
   </g>
  </g>
  <g id="axes_2">
   <g id="patch_17">
    <path d="M 679.2125 377.24 
L 1137.7 377.24 
L 1137.7 48.4 
L 679.2125 48.4 
z
" style="fill:#ffffff;"/>
   </g>
   <g id="patch_18">
    <path clip-path="url(#p0bbae62f62)" d="M 679.2125 362.44371 
L 1065.345223 362.44371 
L 1065.345223 338.286501 
L 679.2125 338.286501 
z
" style="fill:#a4cf00;"/>
   </g>
   <g id="patch_19">
    <path clip-path="url(#p0bbae62f62)" d="M 679.2125 332.247199 
L 1105.041111 332.247199 
L 1105.041111 308.089991 
L 679.2125 308.089991 
z
" style="fill:#a4cf00;"/>
   </g>
   <g id="patch_20">
    <path clip-path="url(#p0bbae62f62)" d="M 679.2125 302.050689 
L 1068.95394 302.050689 
L 1068.95394 277.89348 
L 679.2125 277.89348 
z
" style="fill:#a4cf00;"/>
   </g>
   <g id="patch_21">
    <path clip-path="url(#p0bbae62f62)" d="M 679.2125 271.854178 
L 1076.171374 271.854178 
L 1076.171374 247.69697 
L 679.2125 247.69697 
z
" style="fill:#a4cf00;"/>
   </g>
   <g id="patch_22">
    <path clip-path="url(#p0bbae62f62)" d="M 679.2125 241.657668 
L 1014.823185 241.657668 
L 1014.823185 217.500459 
L 679.2125 217.500459 
z
" style="fill:#a4cf00;"/>
   </g>
   <g id="patch_23">
    <path clip-path="url(#p0bbae62f62)" d="M 679.2125 211.461157 
L 1032.86677 211.461157 
L 1032.86677 187.303949 
L 679.2125 187.303949 
z
" style="fill:#a4cf00;"/>
   </g>
   <g id="patch_24">
    <path clip-path="url(#p0bbae62f62)" d="M 679.2125 181.264646 
L 1115.867262 181.264646 
L 1115.867262 157.107438 
L 679.2125 157.107438 
z
" style="fill:#a4cf00;"/>
   </g>
   <g id="patch_25">
    <path clip-path="url(#p0bbae62f62)" d="M 679.2125 151.068136 
L 1025.649336 151.068136 
L 1025.649336 126.910927 
L 679.2125 126.910927 
z
" style="fill:#a4cf00;"/>
   </g>
   <g id="patch_26">
    <path clip-path="url(#p0bbae62f62)" d="M 679.2125 120.871625 
L 1040.084204 120.871625 
L 1040.084204 96.714417 
L 679.2125 96.714417 
z
" style="fill:#a4cf00;"/>
   </g>
   <g id="patch_27">
    <path clip-path="url(#p0bbae62f62)" d="M 679.2125 90.675115 
L 1022.040619 90.675115 
L 1022.040619 66.517906 
L 679.2125 66.517906 
z
" style="fill:#a4cf00;"/>
   </g>
   <g id="matplotlib.axis_3">
    <g id="xtick_7">
     <g id="line2d_18">
      <g>
       <use style="stroke:#000000;stroke-width:0.8;" x="679.2125" xlink:href="#m74392344b3" y="377.24"/>
      </g>
     </g>
     <g id="text_20">
      <!-- 0 -->
      <g transform="translate(676.03125 391.838437)scale(0.1 -0.1)">
       <use xlink:href="#DejaVuSans-30"/>
      </g>
     </g>
    </g>
    <g id="xtick_8">
     <g id="line2d_19">
      <g>
       <use style="stroke:#000000;stroke-width:0.8;" x="751.386841" xlink:href="#m74392344b3" y="377.24"/>
      </g>
     </g>
     <g id="text_21">
      <!-- 20 -->
      <g transform="translate(745.024341 391.838437)scale(0.1 -0.1)">
       <use xlink:href="#DejaVuSans-32"/>
       <use x="63.623047" xlink:href="#DejaVuSans-30"/>
      </g>
     </g>
    </g>
    <g id="xtick_9">
     <g id="line2d_20">
      <g>
       <use style="stroke:#000000;stroke-width:0.8;" x="823.561182" xlink:href="#m74392344b3" y="377.24"/>
      </g>
     </g>
     <g id="text_22">
      <!-- 40 -->
      <g transform="translate(817.198682 391.838437)scale(0.1 -0.1)">
       <use xlink:href="#DejaVuSans-34"/>
       <use x="63.623047" xlink:href="#DejaVuSans-30"/>
      </g>
     </g>
    </g>
    <g id="xtick_10">
     <g id="line2d_21">
      <g>
       <use style="stroke:#000000;stroke-width:0.8;" x="895.735522" xlink:href="#m74392344b3" y="377.24"/>
      </g>
     </g>
     <g id="text_23">
      <!-- 60 -->
      <g transform="translate(889.373022 391.838437)scale(0.1 -0.1)">
       <use xlink:href="#DejaVuSans-36"/>
       <use x="63.623047" xlink:href="#DejaVuSans-30"/>
      </g>
     </g>
    </g>
    <g id="xtick_11">
     <g id="line2d_22">
      <g>
       <use style="stroke:#000000;stroke-width:0.8;" x="967.909863" xlink:href="#m74392344b3" y="377.24"/>
      </g>
     </g>
     <g id="text_24">
      <!-- 80 -->
      <g transform="translate(961.547363 391.838437)scale(0.1 -0.1)">
       <use xlink:href="#DejaVuSans-38"/>
       <use x="63.623047" xlink:href="#DejaVuSans-30"/>
      </g>
     </g>
    </g>
    <g id="xtick_12">
     <g id="line2d_23">
      <g>
       <use style="stroke:#000000;stroke-width:0.8;" x="1040.084204" xlink:href="#m74392344b3" y="377.24"/>
      </g>
     </g>
     <g id="text_25">
      <!-- 100 -->
      <g transform="translate(1030.540454 391.838437)scale(0.1 -0.1)">
       <use xlink:href="#DejaVuSans-31"/>
       <use x="63.623047" xlink:href="#DejaVuSans-30"/>
       <use x="127.246094" xlink:href="#DejaVuSans-30"/>
      </g>
     </g>
    </g>
    <g id="xtick_13">
     <g id="line2d_24">
      <g>
       <use style="stroke:#000000;stroke-width:0.8;" x="1112.258545" xlink:href="#m74392344b3" y="377.24"/>
      </g>
     </g>
     <g id="text_26">
      <!-- 120 -->
      <g transform="translate(1102.714795 391.838437)scale(0.1 -0.1)">
       <use xlink:href="#DejaVuSans-31"/>
       <use x="63.623047" xlink:href="#DejaVuSans-32"/>
       <use x="127.246094" xlink:href="#DejaVuSans-30"/>
      </g>
     </g>
    </g>
    <g id="text_27">
     <!-- Frequency -->
     <g transform="translate(882.158594 405.516563)scale(0.1 -0.1)">
      <use xlink:href="#DejaVuSans-46"/>
      <use x="57.410156" xlink:href="#DejaVuSans-72"/>
      <use x="98.492188" xlink:href="#DejaVuSans-65"/>
      <use x="160.015625" xlink:href="#DejaVuSans-71"/>
      <use x="223.492188" xlink:href="#DejaVuSans-75"/>
      <use x="286.871094" xlink:href="#DejaVuSans-65"/>
      <use x="348.394531" xlink:href="#DejaVuSans-6e"/>
      <use x="411.773438" xlink:href="#DejaVuSans-63"/>
      <use x="466.753906" xlink:href="#DejaVuSans-79"/>
     </g>
    </g>
   </g>
   <g id="matplotlib.axis_4">
    <g id="ytick_12">
     <g id="line2d_25">
      <g>
       <use style="stroke:#000000;stroke-width:0.8;" x="679.2125" xlink:href="#m7ff073b61a" y="350.365106"/>
      </g>
     </g>
     <g id="text_28">
      <!-- 0.166 to 14.0 -->
      <g transform="translate(604.923438 354.164324)scale(0.1 -0.1)">
       <use xlink:href="#DejaVuSans-30"/>
       <use x="63.623047" xlink:href="#DejaVuSans-2e"/>
       <use x="95.410156" xlink:href="#DejaVuSans-31"/>
       <use x="159.033203" xlink:href="#DejaVuSans-36"/>
       <use x="222.65625" xlink:href="#DejaVuSans-36"/>
       <use x="286.279297" xlink:href="#DejaVuSans-20"/>
       <use x="318.066406" xlink:href="#DejaVuSans-74"/>
       <use x="357.275391" xlink:href="#DejaVuSans-6f"/>
       <use x="418.457031" xlink:href="#DejaVuSans-20"/>
       <use x="450.244141" xlink:href="#DejaVuSans-31"/>
       <use x="513.867188" xlink:href="#DejaVuSans-34"/>
       <use x="577.490234" xlink:href="#DejaVuSans-2e"/>
       <use x="609.277344" xlink:href="#DejaVuSans-30"/>
      </g>
     </g>
    </g>
    <g id="ytick_13">
     <g id="line2d_26">
      <g>
       <use style="stroke:#000000;stroke-width:0.8;" x="679.2125" xlink:href="#m7ff073b61a" y="320.168595"/>
      </g>
     </g>
     <g id="text_29">
      <!-- 14.1 to 19.0 -->
      <g transform="translate(611.285938 323.967814)scale(0.1 -0.1)">
       <use xlink:href="#DejaVuSans-31"/>
       <use x="63.623047" xlink:href="#DejaVuSans-34"/>
       <use x="127.246094" xlink:href="#DejaVuSans-2e"/>
       <use x="159.033203" xlink:href="#DejaVuSans-31"/>
       <use x="222.65625" xlink:href="#DejaVuSans-20"/>
       <use x="254.443359" xlink:href="#DejaVuSans-74"/>
       <use x="293.652344" xlink:href="#DejaVuSans-6f"/>
       <use x="354.833984" xlink:href="#DejaVuSans-20"/>
       <use x="386.621094" xlink:href="#DejaVuSans-31"/>
       <use x="450.244141" xlink:href="#DejaVuSans-39"/>
       <use x="513.867188" xlink:href="#DejaVuSans-2e"/>
       <use x="545.654297" xlink:href="#DejaVuSans-30"/>
      </g>
     </g>
    </g>
    <g id="ytick_14">
     <g id="line2d_27">
      <g>
       <use style="stroke:#000000;stroke-width:0.8;" x="679.2125" xlink:href="#m7ff073b61a" y="289.972084"/>
      </g>
     </g>
     <g id="text_30">
      <!-- 19.1 to 22.0 -->
      <g transform="translate(611.285938 293.771303)scale(0.1 -0.1)">
       <use xlink:href="#DejaVuSans-31"/>
       <use x="63.623047" xlink:href="#DejaVuSans-39"/>
       <use x="127.246094" xlink:href="#DejaVuSans-2e"/>
       <use x="159.033203" xlink:href="#DejaVuSans-31"/>
       <use x="222.65625" xlink:href="#DejaVuSans-20"/>
       <use x="254.443359" xlink:href="#DejaVuSans-74"/>
       <use x="293.652344" xlink:href="#DejaVuSans-6f"/>
       <use x="354.833984" xlink:href="#DejaVuSans-20"/>
       <use x="386.621094" xlink:href="#DejaVuSans-32"/>
       <use x="450.244141" xlink:href="#DejaVuSans-32"/>
       <use x="513.867188" xlink:href="#DejaVuSans-2e"/>
       <use x="545.654297" xlink:href="#DejaVuSans-30"/>
      </g>
     </g>
    </g>
    <g id="ytick_15">
     <g id="line2d_28">
      <g>
       <use style="stroke:#000000;stroke-width:0.8;" x="679.2125" xlink:href="#m7ff073b61a" y="259.775574"/>
      </g>
     </g>
     <g id="text_31">
      <!-- 22.0 to 25.0 -->
      <g transform="translate(611.285938 263.574793)scale(0.1 -0.1)">
       <use xlink:href="#DejaVuSans-32"/>
       <use x="63.623047" xlink:href="#DejaVuSans-32"/>
       <use x="127.246094" xlink:href="#DejaVuSans-2e"/>
       <use x="159.033203" xlink:href="#DejaVuSans-30"/>
       <use x="222.65625" xlink:href="#DejaVuSans-20"/>
       <use x="254.443359" xlink:href="#DejaVuSans-74"/>
       <use x="293.652344" xlink:href="#DejaVuSans-6f"/>
       <use x="354.833984" xlink:href="#DejaVuSans-20"/>
       <use x="386.621094" xlink:href="#DejaVuSans-32"/>
       <use x="450.244141" xlink:href="#DejaVuSans-35"/>
       <use x="513.867188" xlink:href="#DejaVuSans-2e"/>
       <use x="545.654297" xlink:href="#DejaVuSans-30"/>
      </g>
     </g>
    </g>
    <g id="ytick_16">
     <g id="line2d_29">
      <g>
       <use style="stroke:#000000;stroke-width:0.8;" x="679.2125" xlink:href="#m7ff073b61a" y="229.579063"/>
      </g>
     </g>
     <g id="text_32">
      <!-- 25.0 to 28.0 -->
      <g transform="translate(611.285938 233.378282)scale(0.1 -0.1)">
       <use xlink:href="#DejaVuSans-32"/>
       <use x="63.623047" xlink:href="#DejaVuSans-35"/>
       <use x="127.246094" xlink:href="#DejaVuSans-2e"/>
       <use x="159.033203" xlink:href="#DejaVuSans-30"/>
       <use x="222.65625" xlink:href="#DejaVuSans-20"/>
       <use x="254.443359" xlink:href="#DejaVuSans-74"/>
       <use x="293.652344" xlink:href="#DejaVuSans-6f"/>
       <use x="354.833984" xlink:href="#DejaVuSans-20"/>
       <use x="386.621094" xlink:href="#DejaVuSans-32"/>
       <use x="450.244141" xlink:href="#DejaVuSans-38"/>
       <use x="513.867188" xlink:href="#DejaVuSans-2e"/>
       <use x="545.654297" xlink:href="#DejaVuSans-30"/>
      </g>
     </g>
    </g>
    <g id="ytick_17">
     <g id="line2d_30">
      <g>
       <use style="stroke:#000000;stroke-width:0.8;" x="679.2125" xlink:href="#m7ff073b61a" y="199.382553"/>
      </g>
     </g>
     <g id="text_33">
      <!-- 28.1 to 31.0 -->
      <g transform="translate(611.285938 203.181772)scale(0.1 -0.1)">
       <use xlink:href="#DejaVuSans-32"/>
       <use x="63.623047" xlink:href="#DejaVuSans-38"/>
       <use x="127.246094" xlink:href="#DejaVuSans-2e"/>
       <use x="159.033203" xlink:href="#DejaVuSans-31"/>
       <use x="222.65625" xlink:href="#DejaVuSans-20"/>
       <use x="254.443359" xlink:href="#DejaVuSans-74"/>
       <use x="293.652344" xlink:href="#DejaVuSans-6f"/>
       <use x="354.833984" xlink:href="#DejaVuSans-20"/>
       <use x="386.621094" xlink:href="#DejaVuSans-33"/>
       <use x="450.244141" xlink:href="#DejaVuSans-31"/>
       <use x="513.867188" xlink:href="#DejaVuSans-2e"/>
       <use x="545.654297" xlink:href="#DejaVuSans-30"/>
      </g>
     </g>
    </g>
    <g id="ytick_18">
     <g id="line2d_31">
      <g>
       <use style="stroke:#000000;stroke-width:0.8;" x="679.2125" xlink:href="#m7ff073b61a" y="169.186042"/>
      </g>
     </g>
     <g id="text_34">
      <!-- 31.1 to 36.0 -->
      <g transform="translate(611.285938 172.985261)scale(0.1 -0.1)">
       <use xlink:href="#DejaVuSans-33"/>
       <use x="63.623047" xlink:href="#DejaVuSans-31"/>
       <use x="127.246094" xlink:href="#DejaVuSans-2e"/>
       <use x="159.033203" xlink:href="#DejaVuSans-31"/>
       <use x="222.65625" xlink:href="#DejaVuSans-20"/>
       <use x="254.443359" xlink:href="#DejaVuSans-74"/>
       <use x="293.652344" xlink:href="#DejaVuSans-6f"/>
       <use x="354.833984" xlink:href="#DejaVuSans-20"/>
       <use x="386.621094" xlink:href="#DejaVuSans-33"/>
       <use x="450.244141" xlink:href="#DejaVuSans-36"/>
       <use x="513.867188" xlink:href="#DejaVuSans-2e"/>
       <use x="545.654297" xlink:href="#DejaVuSans-30"/>
      </g>
     </g>
    </g>
    <g id="ytick_19">
     <g id="line2d_32">
      <g>
       <use style="stroke:#000000;stroke-width:0.8;" x="679.2125" xlink:href="#m7ff073b61a" y="138.989532"/>
      </g>
     </g>
     <g id="text_35">
      <!-- 36.0 to 42.0 -->
      <g transform="translate(611.285938 142.78875)scale(0.1 -0.1)">
       <use xlink:href="#DejaVuSans-33"/>
       <use x="63.623047" xlink:href="#DejaVuSans-36"/>
       <use x="127.246094" xlink:href="#DejaVuSans-2e"/>
       <use x="159.033203" xlink:href="#DejaVuSans-30"/>
       <use x="222.65625" xlink:href="#DejaVuSans-20"/>
       <use x="254.443359" xlink:href="#DejaVuSans-74"/>
       <use x="293.652344" xlink:href="#DejaVuSans-6f"/>
       <use x="354.833984" xlink:href="#DejaVuSans-20"/>
       <use x="386.621094" xlink:href="#DejaVuSans-34"/>
       <use x="450.244141" xlink:href="#DejaVuSans-32"/>
       <use x="513.867188" xlink:href="#DejaVuSans-2e"/>
       <use x="545.654297" xlink:href="#DejaVuSans-30"/>
      </g>
     </g>
    </g>
    <g id="ytick_20">
     <g id="line2d_33">
      <g>
       <use style="stroke:#000000;stroke-width:0.8;" x="679.2125" xlink:href="#m7ff073b61a" y="108.793021"/>
      </g>
     </g>
     <g id="text_36">
      <!-- 42.0, 50.0 -->
      <g transform="translate(621.325 112.59224)scale(0.1 -0.1)">
       <use xlink:href="#DejaVuSans-34"/>
       <use x="63.623047" xlink:href="#DejaVuSans-32"/>
       <use x="127.246094" xlink:href="#DejaVuSans-2e"/>
       <use x="159.033203" xlink:href="#DejaVuSans-30"/>
       <use x="222.65625" xlink:href="#DejaVuSans-2c"/>
       <use x="254.443359" xlink:href="#DejaVuSans-20"/>
       <use x="286.230469" xlink:href="#DejaVuSans-35"/>
       <use x="349.853516" xlink:href="#DejaVuSans-30"/>
       <use x="413.476562" xlink:href="#DejaVuSans-2e"/>
       <use x="445.263672" xlink:href="#DejaVuSans-30"/>
      </g>
     </g>
    </g>
    <g id="ytick_21">
     <g id="line2d_34">
      <g>
       <use style="stroke:#000000;stroke-width:0.8;" x="679.2125" xlink:href="#m7ff073b61a" y="78.596511"/>
      </g>
     </g>
     <g id="text_37">
      <!-- 50.0 to 80.0 -->
      <g transform="translate(611.285938 82.395729)scale(0.1 -0.1)">
       <use xlink:href="#DejaVuSans-35"/>
       <use x="63.623047" xlink:href="#DejaVuSans-30"/>
       <use x="127.246094" xlink:href="#DejaVuSans-2e"/>
       <use x="159.033203" xlink:href="#DejaVuSans-30"/>
       <use x="222.65625" xlink:href="#DejaVuSans-20"/>
       <use x="254.443359" xlink:href="#DejaVuSans-74"/>
       <use x="293.652344" xlink:href="#DejaVuSans-6f"/>
       <use x="354.833984" xlink:href="#DejaVuSans-20"/>
       <use x="386.621094" xlink:href="#DejaVuSans-38"/>
       <use x="450.244141" xlink:href="#DejaVuSans-30"/>
       <use x="513.867188" xlink:href="#DejaVuSans-2e"/>
       <use x="545.654297" xlink:href="#DejaVuSans-30"/>
      </g>
     </g>
    </g>
    <g id="ytick_22">
     <g id="line2d_35">
      <g>
       <use style="stroke:#000000;stroke-width:0.8;" x="679.2125" xlink:href="#m7ff073b61a" y="48.4"/>
      </g>
     </g>
    </g>
    <g id="text_38">
     <!-- Bins -->
     <g transform="translate(598.84375 223.412969)rotate(-90)scale(0.1 -0.1)">
      <use xlink:href="#DejaVuSans-42"/>
      <use x="68.603516" xlink:href="#DejaVuSans-69"/>
      <use x="96.386719" xlink:href="#DejaVuSans-6e"/>
      <use x="159.765625" xlink:href="#DejaVuSans-73"/>
     </g>
    </g>
   </g>
   <g id="patch_28">
    <path d="M 679.2125 377.24 
L 679.2125 48.4 
" style="fill:none;stroke:#000000;stroke-linecap:square;stroke-linejoin:miter;stroke-width:0.8;"/>
   </g>
   <g id="patch_29">
    <path d="M 1137.7 377.24 
L 1137.7 48.4 
" style="fill:none;stroke:#000000;stroke-linecap:square;stroke-linejoin:miter;stroke-width:0.8;"/>
   </g>
   <g id="patch_30">
    <path d="M 679.2125 377.24 
L 1137.7 377.24 
" style="fill:none;stroke:#000000;stroke-linecap:square;stroke-linejoin:miter;stroke-width:0.8;"/>
   </g>
   <g id="patch_31">
    <path d="M 679.2125 48.4 
L 1137.7 48.4 
" style="fill:none;stroke:#000000;stroke-linecap:square;stroke-linejoin:miter;stroke-width:0.8;"/>
   </g>
   <g id="text_39">
    <!-- Using pd.qcut() - The Frequency of Data Per Bin -->
    <g transform="translate(764.586563 42.4)scale(0.12 -0.12)">
     <use xlink:href="#DejaVuSans-55"/>
     <use x="73.193359" xlink:href="#DejaVuSans-73"/>
     <use x="125.292969" xlink:href="#DejaVuSans-69"/>
     <use x="153.076172" xlink:href="#DejaVuSans-6e"/>
     <use x="216.455078" xlink:href="#DejaVuSans-67"/>
     <use x="279.931641" xlink:href="#DejaVuSans-20"/>
     <use x="311.71875" xlink:href="#DejaVuSans-70"/>
     <use x="375.195312" xlink:href="#DejaVuSans-64"/>
     <use x="438.671875" xlink:href="#DejaVuSans-2e"/>
     <use x="470.458984" xlink:href="#DejaVuSans-71"/>
     <use x="533.935547" xlink:href="#DejaVuSans-63"/>
     <use x="588.916016" xlink:href="#DejaVuSans-75"/>
     <use x="652.294922" xlink:href="#DejaVuSans-74"/>
     <use x="691.503906" xlink:href="#DejaVuSans-28"/>
     <use x="730.517578" xlink:href="#DejaVuSans-29"/>
     <use x="769.53125" xlink:href="#DejaVuSans-20"/>
     <use x="801.318359" xlink:href="#DejaVuSans-2d"/>
     <use x="837.402344" xlink:href="#DejaVuSans-20"/>
     <use x="869.189453" xlink:href="#DejaVuSans-54"/>
     <use x="930.273438" xlink:href="#DejaVuSans-68"/>
     <use x="993.652344" xlink:href="#DejaVuSans-65"/>
     <use x="1055.175781" xlink:href="#DejaVuSans-20"/>
     <use x="1086.962891" xlink:href="#DejaVuSans-46"/>
     <use x="1144.373047" xlink:href="#DejaVuSans-72"/>
     <use x="1185.455078" xlink:href="#DejaVuSans-65"/>
     <use x="1246.978516" xlink:href="#DejaVuSans-71"/>
     <use x="1310.455078" xlink:href="#DejaVuSans-75"/>
     <use x="1373.833984" xlink:href="#DejaVuSans-65"/>
     <use x="1435.357422" xlink:href="#DejaVuSans-6e"/>
     <use x="1498.736328" xlink:href="#DejaVuSans-63"/>
     <use x="1553.716797" xlink:href="#DejaVuSans-79"/>
     <use x="1612.896484" xlink:href="#DejaVuSans-20"/>
     <use x="1644.683594" xlink:href="#DejaVuSans-6f"/>
     <use x="1705.865234" xlink:href="#DejaVuSans-66"/>
     <use x="1741.070312" xlink:href="#DejaVuSans-20"/>
     <use x="1772.857422" xlink:href="#DejaVuSans-44"/>
     <use x="1849.859375" xlink:href="#DejaVuSans-61"/>
     <use x="1911.138672" xlink:href="#DejaVuSans-74"/>
     <use x="1950.347656" xlink:href="#DejaVuSans-61"/>
     <use x="2011.626953" xlink:href="#DejaVuSans-20"/>
     <use x="2043.414062" xlink:href="#DejaVuSans-50"/>
     <use x="2103.669922" xlink:href="#DejaVuSans-65"/>
     <use x="2165.193359" xlink:href="#DejaVuSans-72"/>
     <use x="2206.306641" xlink:href="#DejaVuSans-20"/>
     <use x="2238.09375" xlink:href="#DejaVuSans-42"/>
     <use x="2306.697266" xlink:href="#DejaVuSans-69"/>
     <use x="2334.480469" xlink:href="#DejaVuSans-6e"/>
    </g>
   </g>
  </g>
  <g id="text_40">
   <!-- Comparing the distribution of data within bins using pd.cut() and pd.qcut() -->
   <defs>
    <path d="M 64.40625 67.28125 
L 64.40625 56.890625 
Q 59.421875 61.53125 53.78125 63.8125 
Q 48.140625 66.109375 41.796875 66.109375 
Q 29.296875 66.109375 22.65625 58.46875 
Q 16.015625 50.828125 16.015625 36.375 
Q 16.015625 21.96875 22.65625 14.328125 
Q 29.296875 6.6875 41.796875 6.6875 
Q 48.140625 6.6875 53.78125 8.984375 
Q 59.421875 11.28125 64.40625 15.921875 
L 64.40625 5.609375 
Q 59.234375 2.09375 53.4375 0.328125 
Q 47.65625 -1.421875 41.21875 -1.421875 
Q 24.65625 -1.421875 15.125 8.703125 
Q 5.609375 18.84375 5.609375 36.375 
Q 5.609375 53.953125 15.125 64.078125 
Q 24.65625 74.21875 41.21875 74.21875 
Q 47.75 74.21875 53.53125 72.484375 
Q 59.328125 70.75 64.40625 67.28125 
z
" id="DejaVuSans-43"/>
    <path d="M 52 44.1875 
Q 55.375 50.25 60.0625 53.125 
Q 64.75 56 71.09375 56 
Q 79.640625 56 84.28125 50.015625 
Q 88.921875 44.046875 88.921875 33.015625 
L 88.921875 0 
L 79.890625 0 
L 79.890625 32.71875 
Q 79.890625 40.578125 77.09375 44.375 
Q 74.3125 48.1875 68.609375 48.1875 
Q 61.625 48.1875 57.5625 43.546875 
Q 53.515625 38.921875 53.515625 30.90625 
L 53.515625 0 
L 44.484375 0 
L 44.484375 32.71875 
Q 44.484375 40.625 41.703125 44.40625 
Q 38.921875 48.1875 33.109375 48.1875 
Q 26.21875 48.1875 22.15625 43.53125 
Q 18.109375 38.875 18.109375 30.90625 
L 18.109375 0 
L 9.078125 0 
L 9.078125 54.6875 
L 18.109375 54.6875 
L 18.109375 46.1875 
Q 21.1875 51.21875 25.484375 53.609375 
Q 29.78125 56 35.6875 56 
Q 41.65625 56 45.828125 52.96875 
Q 50 49.953125 52 44.1875 
z
" id="DejaVuSans-6d"/>
    <path d="M 48.6875 27.296875 
Q 48.6875 37.203125 44.609375 42.84375 
Q 40.53125 48.484375 33.40625 48.484375 
Q 26.265625 48.484375 22.1875 42.84375 
Q 18.109375 37.203125 18.109375 27.296875 
Q 18.109375 17.390625 22.1875 11.75 
Q 26.265625 6.109375 33.40625 6.109375 
Q 40.53125 6.109375 44.609375 11.75 
Q 48.6875 17.390625 48.6875 27.296875 
z
M 18.109375 46.390625 
Q 20.953125 51.265625 25.265625 53.625 
Q 29.59375 56 35.59375 56 
Q 45.5625 56 51.78125 48.09375 
Q 58.015625 40.1875 58.015625 27.296875 
Q 58.015625 14.40625 51.78125 6.484375 
Q 45.5625 -1.421875 35.59375 -1.421875 
Q 29.59375 -1.421875 25.265625 0.953125 
Q 20.953125 3.328125 18.109375 8.203125 
L 18.109375 0 
L 9.078125 0 
L 9.078125 75.984375 
L 18.109375 75.984375 
z
" id="DejaVuSans-62"/>
    <path d="M 4.203125 54.6875 
L 13.1875 54.6875 
L 24.421875 12.015625 
L 35.59375 54.6875 
L 46.1875 54.6875 
L 57.421875 12.015625 
L 68.609375 54.6875 
L 77.59375 54.6875 
L 63.28125 0 
L 52.6875 0 
L 40.921875 44.828125 
L 29.109375 0 
L 18.5 0 
z
" id="DejaVuSans-77"/>
   </defs>
   <g transform="translate(351.43125 17.758125)scale(0.12 -0.12)">
    <use xlink:href="#DejaVuSans-43"/>
    <use x="69.824219" xlink:href="#DejaVuSans-6f"/>
    <use x="131.005859" xlink:href="#DejaVuSans-6d"/>
    <use x="228.417969" xlink:href="#DejaVuSans-70"/>
    <use x="291.894531" xlink:href="#DejaVuSans-61"/>
    <use x="353.173828" xlink:href="#DejaVuSans-72"/>
    <use x="394.287109" xlink:href="#DejaVuSans-69"/>
    <use x="422.070312" xlink:href="#DejaVuSans-6e"/>
    <use x="485.449219" xlink:href="#DejaVuSans-67"/>
    <use x="548.925781" xlink:href="#DejaVuSans-20"/>
    <use x="580.712891" xlink:href="#DejaVuSans-74"/>
    <use x="619.921875" xlink:href="#DejaVuSans-68"/>
    <use x="683.300781" xlink:href="#DejaVuSans-65"/>
    <use x="744.824219" xlink:href="#DejaVuSans-20"/>
    <use x="776.611328" xlink:href="#DejaVuSans-64"/>
    <use x="840.087891" xlink:href="#DejaVuSans-69"/>
    <use x="867.871094" xlink:href="#DejaVuSans-73"/>
    <use x="919.970703" xlink:href="#DejaVuSans-74"/>
    <use x="959.179688" xlink:href="#DejaVuSans-72"/>
    <use x="1000.292969" xlink:href="#DejaVuSans-69"/>
    <use x="1028.076172" xlink:href="#DejaVuSans-62"/>
    <use x="1091.552734" xlink:href="#DejaVuSans-75"/>
    <use x="1154.931641" xlink:href="#DejaVuSans-74"/>
    <use x="1194.140625" xlink:href="#DejaVuSans-69"/>
    <use x="1221.923828" xlink:href="#DejaVuSans-6f"/>
    <use x="1283.105469" xlink:href="#DejaVuSans-6e"/>
    <use x="1346.484375" xlink:href="#DejaVuSans-20"/>
    <use x="1378.271484" xlink:href="#DejaVuSans-6f"/>
    <use x="1439.453125" xlink:href="#DejaVuSans-66"/>
    <use x="1474.658203" xlink:href="#DejaVuSans-20"/>
    <use x="1506.445312" xlink:href="#DejaVuSans-64"/>
    <use x="1569.921875" xlink:href="#DejaVuSans-61"/>
    <use x="1631.201172" xlink:href="#DejaVuSans-74"/>
    <use x="1670.410156" xlink:href="#DejaVuSans-61"/>
    <use x="1731.689453" xlink:href="#DejaVuSans-20"/>
    <use x="1763.476562" xlink:href="#DejaVuSans-77"/>
    <use x="1845.263672" xlink:href="#DejaVuSans-69"/>
    <use x="1873.046875" xlink:href="#DejaVuSans-74"/>
    <use x="1912.255859" xlink:href="#DejaVuSans-68"/>
    <use x="1975.634766" xlink:href="#DejaVuSans-69"/>
    <use x="2003.417969" xlink:href="#DejaVuSans-6e"/>
    <use x="2066.796875" xlink:href="#DejaVuSans-20"/>
    <use x="2098.583984" xlink:href="#DejaVuSans-62"/>
    <use x="2162.060547" xlink:href="#DejaVuSans-69"/>
    <use x="2189.84375" xlink:href="#DejaVuSans-6e"/>
    <use x="2253.222656" xlink:href="#DejaVuSans-73"/>
    <use x="2305.322266" xlink:href="#DejaVuSans-20"/>
    <use x="2337.109375" xlink:href="#DejaVuSans-75"/>
    <use x="2400.488281" xlink:href="#DejaVuSans-73"/>
    <use x="2452.587891" xlink:href="#DejaVuSans-69"/>
    <use x="2480.371094" xlink:href="#DejaVuSans-6e"/>
    <use x="2543.75" xlink:href="#DejaVuSans-67"/>
    <use x="2607.226562" xlink:href="#DejaVuSans-20"/>
    <use x="2639.013672" xlink:href="#DejaVuSans-70"/>
    <use x="2702.490234" xlink:href="#DejaVuSans-64"/>
    <use x="2765.966797" xlink:href="#DejaVuSans-2e"/>
    <use x="2797.753906" xlink:href="#DejaVuSans-63"/>
    <use x="2852.734375" xlink:href="#DejaVuSans-75"/>
    <use x="2916.113281" xlink:href="#DejaVuSans-74"/>
    <use x="2955.322266" xlink:href="#DejaVuSans-28"/>
    <use x="2994.335938" xlink:href="#DejaVuSans-29"/>
    <use x="3033.349609" xlink:href="#DejaVuSans-20"/>
    <use x="3065.136719" xlink:href="#DejaVuSans-61"/>
    <use x="3126.416016" xlink:href="#DejaVuSans-6e"/>
    <use x="3189.794922" xlink:href="#DejaVuSans-64"/>
    <use x="3253.271484" xlink:href="#DejaVuSans-20"/>
    <use x="3285.058594" xlink:href="#DejaVuSans-70"/>
    <use x="3348.535156" xlink:href="#DejaVuSans-64"/>
    <use x="3412.011719" xlink:href="#DejaVuSans-2e"/>
    <use x="3443.798828" xlink:href="#DejaVuSans-71"/>
    <use x="3507.275391" xlink:href="#DejaVuSans-63"/>
    <use x="3562.255859" xlink:href="#DejaVuSans-75"/>
    <use x="3625.634766" xlink:href="#DejaVuSans-74"/>
    <use x="3664.84375" xlink:href="#DejaVuSans-28"/>
    <use x="3703.857422" xlink:href="#DejaVuSans-29"/>
   </g>
  </g>
 </g>
 <defs>
  <clipPath id="pb259ebae67">
   <rect height="328.84" width="458.4875" x="118.175" y="48.4"/>
  </clipPath>
  <clipPath id="p0bbae62f62">
   <rect height="328.84" width="458.4875" x="679.2125" y="48.4"/>
  </clipPath>
 </defs>
</svg>
